PathFileType	4	(X/Y/Z)	C:/Users/beibeiliu/ov580/test_trc/User2\sequence.8_training_dense_right.trc
DataRate	CameraRate	NumFrames	NumMarkers	Units	OrigDataRate	OrigDataStartFrame	OrigNumFrames
120	120	24	19	mm	120	301	343
Frame#	Time	ThumbCMC			ThumbMCP			ThumbIP			ThumbTip			IndexMCP			IndexPIP			IndexTip			MiddleMCP			MiddlePIP			MiddleTip			RingMCP			RingPIP			RingTip			PinkyMCP			PinkyPIP			PinkyTip			BackHand1			BackHand2			BackHand3	
		X0	Y0	Z0	X1	Y1	Z1	X2	Y2	Z2	X3	Y3	Z3	X4	Y4	Z4	X5	Y5	Z5	X6	Y6	Z6	X7	Y7	Z7	X8	Y8	Z8	X9	Y9	Z9	X10	Y10	Z10	X11	Y11	Z11	X12	Y12	Z12	X13	Y13	Z13	X14	Y14	Z14	X15	Y15	Z15	X16	Y16	Z16	X17	Y17	Z17	X18	Y18	Z18	
300	2.5	117.288	9.40437	83.4426	95.443	-14.8764	63.3328	86.2397	-33.5929	32.5388	92.5449	-43.3116	10.8971	110.388	29.4452	-2.24054	106.847	16.6017	-30.3687	113.748	-11.6704	-49.3103	133.306	41.7566	-12.2123	131.305	30.1634	-43.1255	143.193	1.88138	-67.0993	160.79	43.8414	-8.17844	162.017	36.6514	-37.8784	161.183	14.822	-60.5485	187.887	38.0911	1.40832	194.002	31.0143	-27.9113	194.001	20.9278	-48.0932	162.943	50.241	46.5446	168.052	54.5597	78.9163	130.753	44.121	68.3337	
301	2.50833	110.382	2.8673	89.5535	93.8231	-18.631	66.7276	80.8105	-38.625	40.1709	86.6701	-44.7421	11.5131	97.6551	26.7745	4.17837	91.7763	13.725	-24.9575	100.092	-12.4405	-45.2458	120.813	41.0131	-10.6089	115.199	28.7975	-42.1289	122.648	1.57934	-66.9484	145.077	42.7922	-8.91638	142.507	38.1072	-35.5539	139.286	16.0756	-62.6242	171.74	38.2614	0.502174	177.458	34.8698	-24.8084	178.123	26.9529	-55.5145	158.079	46.9427	49.7	165.305	52.3126	82.5952	128.741	40.8049	67.8664	
302	2.51667	112.731	-0.092479	87.4941	94.1432	-21.6247	68.2053	81.9991	-39.9055	39.8446	87.3591	-47.136	15.5641	93.3938	23.3476	8.50409	89.6024	12.1032	-24.1299	95.8926	-14.7884	-44.1391	114.483	37.4402	-3.98413	109.222	27.8184	-40.4476	113.142	3.46118	-66.875	140.75	44.675	-7.66516	137.525	38.6759	-36.2801	134.874	19.4368	-62.7248	167.882	39.6155	2.13699	172.476	37.9083	-26.6902	171.851	30.9135	-52.3473	150.748	45.7084	49.1876	161.182	48.7488	84.4249	124.368	37.8544	70.5589	
303	2.525	111.026	-2.95511	86.0173	95.3785	-24.5748	62.0954	85.4561	-44.2679	33.0201	91.4271	-52.4574	9.36534	101.322	21.9447	3.95881	94.3644	8.85915	-27.6958	103.392	-13.5817	-46.0177	120.416	36.9035	-10.2417	112.213	24.2837	-43.8302	119.532	2.58538	-67.7041	146.101	41.4566	-3.67302	145.693	38.3833	-37.4465	142.878	17.9862	-64.2344	176.172	39.7493	1.43929	179.349	36.2307	-23.526	176.475	30.0313	-52.9298	152.633	42.8059	47.0745	160.338	46.7897	81.2921	123.315	34.1391	70.4693	
304	2.53333	116.116	-3.1112	78.7217	103.599	-26.0655	55.375	100.763	-44.5319	26.3462	109.585	-54.0598	3.80882	112.246	17.4382	-7.26146	114.278	6.31771	-33.6831	129.804	-20.3049	-51.7843	133.257	33.0802	-14.464	135.719	22.2143	-47.6364	143.121	-4.79676	-74.0678	158.719	38.3905	-10.2472	163.289	32.6756	-41.5851	167.197	14.0311	-63.1518	189.556	37.2586	4.38727	195.198	33.2222	-19.7874	202.436	25.3243	-45.3026	160.83	42.892	45.8489	163.286	48.5314	78.1829	126.197	35.5351	66.1202	
305	2.54167	119.882	-2.93225	73.9148	111.629	-28.3344	52.8089	114.781	-47.2694	19.6344	127.433	-57.138	-1.69495	130.923	13.0362	-10.6134	135.019	-0.636788	-38.5771	150.335	-26.23	-53.5751	152.791	28.3063	-15.6256	159.746	13.7883	-51.3126	171.871	-9.90656	-71.6192	177.641	33.7495	-11.5956	183.924	27.4146	-36.6385	191.43	6.09494	-61.492	203.74	31.6761	11.7019	215.693	27.6931	-19.1389	218.487	17.8319	-39.9202	170.39	41.8199	47.9752	169.986	50.226	76.9503	133.167	33.6397	60.3635	
306	2.55	121.048	-2.62197	70.4252	115.405	-30.4845	49.4067	118.735	-53.0778	20.2905	133.382	-63.6533	2.65068	138.05	8.4511	-16.2857	149.519	-5.49557	-39.1705	164.996	-30.5757	-52.2974	164.865	24.834	-18.3311	173.458	8.34437	-51.284	189.424	-14.6053	-68.511	186.513	29.5675	-8.29268	195.622	21.114	-35.8094	208.017	1.28738	-59.8427	207.921	29.1774	10.095	222.433	24.3078	-11.1489	233.467	14.3435	-39.142	173.478	40.8232	47.8672	173.141	49.5953	79.3897	141.587	34.7019	55.0437	
307	2.55833	122.515	-2.3932	72.9652	116.898	-28.7071	52.1607	117.269	-51.2384	26.4905	129.117	-65.6259	0.322572	140.778	8.50083	-14.0837	143.272	-10.6643	-40.4274	155.471	-33.663	-51.1378	160.638	22.9197	-19.1281	170.008	6.61791	-50.3177	182.213	-16.8947	-68.6404	185.449	30.204	-9.21665	188.651	19.82	-36.7242	197.974	-0.673099	-61.8787	209.574	27.7745	11.0217	220.227	21.6133	-16.5907	225.858	11.8574	-40.7572	176.89	39.2954	45.4882	170.238	46.8937	74.923	139.39	35.0391	56.7414	
308	2.56667	122.363	-0.50494	76.8339	110.772	-26.5521	60.0506	108.579	-48.9381	31.6934	118.307	-60.7885	5.99589	128.222	11.9954	-7.77532	132.609	-5.19473	-36.9229	140.412	-26.6326	-49.7156	151.02	26.3402	-17.9042	154.689	13.678	-46.4089	163.364	-13.6774	-69.5703	172.736	33.2452	-11.1531	176.155	25.629	-37.3259	175.097	5.09104	-61.564	195.716	27.7748	9.97697	206.96	25.7425	-18.9648	211.709	16.6494	-47.8964	171.821	39.9554	45.665	171.545	48.7474	75.5117	136.614	34.2014	61.2872	
309	2.575	120.127	0.623763	81.9145	103.003	-23.9804	58.7281	97.3935	-44.5664	29.4031	106.527	-53.3998	8.31742	110.391	15.3775	-3.69651	112.322	3.51812	-30.7004	120.175	-21.8046	-48.6071	136.252	32.4317	-10.667	134.969	18.9495	-47.9979	140.42	-5.11504	-70.0891	156.761	36.6298	-11.4837	157.395	31.7642	-38.4771	155.654	11.0222	-65.7468	187.685	32.44	4.18774	190.596	31.7648	-21.6171	191.537	26.2113	-49.528	164.774	42.4909	49.6599	172.342	49.6643	78.3818	134.336	38.0365	63.9869	
310	2.58333	115.71	1.04844	83.4047	102.4	-19.3838	63.1054	89.7986	-39.5634	35.9314	97.1889	-46.1417	8.80526	102.181	21.6714	0.351961	99.2566	11.3423	-25.5986	106.488	-11.7051	-45.5822	125.877	36.9688	-8.52444	122.545	28.2899	-42.2217	120.947	3.70834	-69.0647	152.232	42.198	-6.56491	143.276	35.3062	-38.0499	139.974	17.0338	-64.0029	180.3	38.3324	2.02388	177.451	35.7677	-27.1213	178.933	32.6677	-53.9577	159.716	45.8162	47.6776	168.769	48.7267	79.0659	131.392	38.1879	67.2891	
311	2.59167	116.263	4.13834	83.5809	98.3501	-17.4674	66.19	89.941	-32.6831	36.4192	92.6874	-42.6812	8.47657	102.349	27.2106	2.43405	96.6978	16.3705	-24.6594	101.455	-11.3719	-48.2587	121.449	39.7022	-8.93079	119.397	31.7001	-41.9986	120.186	9.02195	-67.9756	147.384	43.1172	-6.12308	143.895	38.8687	-39.0238	139.938	19.3021	-64.9092	179.974	38.0489	5.02503	181.784	39.1296	-25.2036	176.103	33.6116	-52.1869	160.616	45.4738	48.8339	169.28	50.5679	78.4086	131.909	39.9848	69.8172	
312	2.6	114.567	6.49304	82.9932	97.8569	-14.413	61.9359	88.3377	-33.3923	30.933	98.3377	-41.2896	4.58316	105.79	27.0025	-2.30293	106.051	15.2608	-31.5939	111.919	-8.0815	-48.3117	129.123	39.2562	-11.0436	127.324	27.8486	-45.5663	131.967	2.07759	-68.3872	156.498	42.9879	-11.254	154.645	35.3026	-38.5105	152.217	12.6146	-65.3168	183.173	36.7872	2.41265	187.331	32.5824	-25.5639	192.985	24.6383	-53.2558	166.641	49.2192	48.0584	166.405	51.4089	77.16	129.223	43.9229	66.2005	
313	2.60833	115.893	11.1339	76.708	97.6326	-14.1308	60.8464	91.4424	-35.4728	32.6475	100.071	-49.4246	7.21621	120.681	23.0587	-5.64188	116.916	5.82464	-34.7467	125.857	-19.6793	-48.3097	145.798	32.9768	-16.6307	145.815	15.3792	-47.4513	149.187	-14.7408	-65.8395	171.151	35.1577	-8.87045	171.719	24.1085	-38.9856	171.164	-1.694	-60.0041	194.805	29.1573	4.36059	199.928	21.1542	-24.1861	208.555	9.40714	-45.0599	169.255	44.9067	43.3233	174.768	54.7121	78.8295	136.647	45.3975	61.9738	
314	2.61667	113.627	16.0199	80.3315	101.171	-10.3918	64.9256	95.7474	-36.5435	36.0686	101.771	-54.0744	16.7632	124.488	13.7808	-9.64319	123.852	-4.42753	-32.3335	133.287	-34.1175	-42.1205	150.934	20.4009	-16.9685	152.666	-4.26921	-46.6284	161.404	-33.6597	-56.8043	177.099	21.22	-11.1703	177.442	5.08036	-35.6173	177.005	-25.8602	-52.717	197.191	18.0972	8.67302	206.584	5.40346	-18.2686	209.747	-12.1755	-38.8244	177.125	42.0222	41.088	173.19	53.8131	72.5179	137.96	45.6078	58.2461	
315	2.625	118.534	23.7208	82.0809	100.083	-3.52991	70.1277	90.7224	-31.0181	48.1025	89.6078	-53.6771	29.9641	125.239	8.52771	-4.88323	124.307	-11.3117	-25.7413	124.431	-46.3757	-35.9604	149.304	11.2018	-13.1451	151.655	-16.5529	-40.4702	149.647	-48.1356	-47.8105	177.565	7.89949	-11.9584	176.105	-10.8877	-30.7442	170.097	-44.4659	-43.2002	199.695	5.20897	6.31321	202.952	-13.9764	-14.6346	206.571	-38.3805	-31.528	178.299	38.035	39.1034	180.804	53.5651	70.6948	143.379	48.6255	54.0658	
316	2.63333	118.26	32.6481	83.3282	97.8409	7.28011	70.1824	79.4803	-16.7101	55.2524	75.7522	-40.6422	36.0186	116.188	10.0207	-3.81103	109.525	-12.8654	-23.0638	109.417	-42.4859	-30.3507	141.915	7.90536	-12.6981	139.68	-16.0536	-35.3924	135.669	-52.1366	-44.3829	168.073	-0.403205	-8.79836	166.333	-21.9661	-29.3683	157.332	-54.5943	-38.7278	191.751	-7.33303	7.40861	192.797	-25.1745	-9.96827	190.317	-51.6688	-26.652	180.217	34.0449	42.8064	187.148	52.0905	70.0401	145.014	50.2056	54.0657	
317	2.64167	118.111	37.701	80.702	89.8697	19.3004	69.0778	68.8413	-3.65661	50.4429	68.8046	-22.9136	35.5827	112.488	19.8865	-3.44927	102.697	1.19714	-22.1006	93.6444	-26.648	-30.339	138.48	12.2141	-16.0248	130.984	-12.3744	-37.8272	118.85	-44.7145	-46.9676	159.25	2.89599	-6.22569	154.188	-21.878	-31.2196	138.302	-49.1106	-40.7929	184.617	-10.5476	8.3112	180.324	-30.4049	-11.613	170.391	-51.4623	-26.6758	180.029	30.1073	36.7404	190.1	46.6649	65.7444	148.464	51.017	53.6477	
318	2.65	116.624	40.8211	78.9863	90.4126	25.5118	70.1859	67.7215	6.00023	46.4363	61.6086	-11.6117	30.5286	112.079	30.3749	-4.0178	99.8556	12.024	-26.5003	88.3135	-14.6703	-38.0845	136.825	22.9558	-16.7016	124.033	5.71003	-40.9285	110.71	-26.2103	-58.0529	158.137	9.31601	-9.73194	146.444	-8.25723	-36.5777	130.13	-32.2484	-51.0906	180.425	-6.86795	3.90211	178.026	-25.7219	-16.5922	165.181	-42.7513	-34.8915	174.187	33.6523	39.2582	186.228	43.927	66.7292	150.831	52.4899	54.7147	
319	2.65833	114.997	37.7256	82.3252	89.9426	22.6143	63.0634	66.8881	8.20449	39.8634	58.593	-7.89593	20.2202	114.498	39.5668	-3.97555	102.271	27.0599	-29.1171	87.1364	0.324346	-46.3211	135.594	36.2661	-15.749	125.018	19.9823	-48.8737	114.036	-3.76749	-66.4375	156.109	21.7377	-17.6199	153.287	6.69004	-42.4044	136.869	-17.0445	-61.8388	180.668	2.33194	0.56156	178.387	-13.0456	-23.7295	169.656	-27.4177	-43.7715	173.985	37.4045	37.6003	187.839	44.7539	69.4493	148.937	54.416	57.8944	
320	2.66667	112.83	35.6769	73.0604	90.9226	20.0137	57.7555	71.6774	5.16844	32.241	64.5654	-8.43745	9.27788	118.445	43.5333	-9.63531	105.145	32.7156	-36.7417	98.0188	6.79428	-52.9517	139.995	41.9311	-22.536	133.378	28.888	-51.8829	122.896	0.619163	-72.6427	165.741	26.9268	-19.8947	160.925	13.1313	-46.6328	145.943	-9.52369	-66.3088	182.974	9.93192	-2.87372	182.622	-5.18372	-27.4024	176.166	-23.7295	-50.3524	174.255	40.7271	37.7606	185.122	45.1981	69.8261	146.787	56.531	59.2502	
321	2.675	112.906	35.1955	72.7434	91.1354	19.445	54.0251	71.5217	2.86539	27.0628	69.724	-13.2119	2.90203	122.283	40.3634	-12.6693	115.54	23.7365	-42.5034	107.16	-1.80613	-54.0546	150.581	35.3965	-25.6285	145.216	18.3466	-53.8052	135.786	-12.7805	-71.0749	167.074	24.0864	-18.4561	166.316	6.89669	-46.4441	152.454	-15.8818	-59.6549	187.879	4.66935	-5.79814	188.015	-12.8274	-26.7863	177.194	-33.2759	-45.0685	177.725	41.5915	36.9868	184.327	48.5964	67.1321	150.097	54.5306	52.6894	
322	2.68333	112.253	37.1047	68.6052	93.1309	18.5579	52.969	72.7502	-1.42781	29.8538	72.1893	-18.9082	12.654	126.139	28.5241	-12.8487	116.466	8.51241	-40.5486	113.199	-20.9337	-46.1845	148.972	22.3017	-25.1387	144.386	-1.46324	-51.1177	132.986	-37.9238	-58.042	170.743	8.45834	-18.7246	165.4	-14.9697	-40.0404	150.136	-42.7321	-45.7268	191.985	-6.96015	0.193316	185.126	-26.2208	-17.2185	173.927	-55.1905	-28.0672	182.504	34.9143	34.5797	186.736	47.3779	63.5419	151.9	52.9995	52.358	
323	2.69167	114.737	38.9362	72.467	90.8591	19.0439	58.862	71.9201	-1.99159	45.2226	64.394	-25.0897	27.1761	120.893	13.9929	-11.1175	112.774	-11.5593	-30.3321	103.028	-43.2997	-29.3968	146.552	5.311	-17.5396	134.144	-26.3885	-38.5496	123.488	-57.8048	-35.089	166.338	-7.36669	-9.51084	154.421	-34.8248	-26.3143	142.542	-63.5674	-22.1595	185.895	-20.1124	7.87683	174.697	-44.4194	-6.48991	160.4	-71.3517	-7.12274	176.922	29.8558	35.0364	184.942	45.7365	60.885	150.064	52.7488	50.3715	
